<svg xmlns="http://www.w3.org/2000/svg" viewBox="0 0 1329.23 231.06"><defs><style>.cls-1{fill:#21c2e9;}</style></defs><g id="Layer_2" data-name="Layer 2"><g id="Layer_1-2" data-name="Layer 1"><path class="cls-1" d="M298.64,30.32A107.71,107.71,0,0,0,276.17,12.6c-.17-.09-.43-.26-.76-.43A87.22,87.22,0,0,0,231.4.56c-1.7,0-3.48,0-5.17.08-2,.1-4.1.33-6.15.53-1.29.13-2.58.28-3.86.49-1.61.25-3.22.51-4.83.85s-3.22.67-4.75,1.1S203.5,4.46,202,5q-23,7.38-40.7,27c-1.36-1.44-2.72-2.89-4.16-4.24-1.19-1.19-2.46-2.38-3.73-3.48S150.85,22,149.57,21s-2.54-2-3.81-3a36.13,36.13,0,0,0-3.22-2.2,82.67,82.67,0,0,0-7.72-4.75c-1.61-.85-3.22-1.7-4.75-2.37a3.9,3.9,0,0,0-.68-.34c-1.35-.6-2.79-1.19-4.24-1.78a82.14,82.14,0,0,0-9.15-3c-1.61-.43-3.14-.77-4.75-1.1A95.06,95.06,0,0,0,96.32.64C95,.56,93.61.56,92.17.56h-1a86.32,86.32,0,0,0-44.68,12A105.19,105.19,0,0,0,24,30.32Q0,57.53,0,93.91V218.33A12.69,12.69,0,0,0,12.69,231H45.87V91.79a4.54,4.54,0,0,1,.09-1.1A3.21,3.21,0,0,1,46,89.42a14.73,14.73,0,0,1,.34-3.23,23.38,23.38,0,0,1,.51-3.13,28.78,28.78,0,0,1,1-4,18.24,18.24,0,0,1,1.1-3.3,16.85,16.85,0,0,1,.76-2.55c.6-1,1.27-2.12,1.95-3a.27.27,0,0,1,.09-.17A42,42,0,0,1,61.9,58,41.69,41.69,0,0,1,77.33,48.8a1.74,1.74,0,0,1,.68-.34,5.6,5.6,0,0,0,.68-.17.67.67,0,0,1,.34-.08A37.28,37.28,0,0,1,89.29,46.6a12.88,12.88,0,0,1,1.86-.09h1A45.36,45.36,0,0,1,110,49.9l1.52.51a10.82,10.82,0,0,1,1.27.85,41.8,41.8,0,0,1,12.72,9.92c.51.51,1,1.1,1.44,1.61a43.11,43.11,0,0,1,7.38,11,.08.08,0,0,0,.09.08c.17.42.42.85.67,1.36a4.45,4.45,0,0,1,.34,1,.31.31,0,0,0,.09.26c.42,1.19.76,2.46,1.1,3.64a27.87,27.87,0,0,1,.76,3.65,76.67,76.67,0,0,1,1.28,14.67V231h45.28V98.49a76.72,76.72,0,0,1,1.27-14.67,19.3,19.3,0,0,1,.59-3,22.12,22.12,0,0,1,1.36-4.24,3.48,3.48,0,0,1,.34-1.27,15.36,15.36,0,0,1,.76-1.36v-.08a36.51,36.51,0,0,1,5.26-8.4c.51-.68,1.1-1.36,1.61-2A45.12,45.12,0,0,1,210.2,51a3.45,3.45,0,0,1,.93-.6,6.89,6.89,0,0,1,1.19-.34,45.35,45.35,0,0,1,18.15-3.56h.59c.68,0,1.44.09,2.29.09a39.75,39.75,0,0,1,10.17,1.61.34.34,0,0,1,.26.08,4.1,4.1,0,0,1,.85.17c.25.09.5.26.76.34A43.39,43.39,0,0,1,260.74,58a42.78,42.78,0,0,1,10.6,12.89c.5.77.93,1.53,1.44,2.29.25.76.51,1.53.68,2.21.08.08.08.17.17.34a44.81,44.81,0,0,1,2.62,10.42.75.75,0,0,0,.09.43,15.51,15.51,0,0,1,.25,2.8c0,.42.09.85.09,1.27a5.1,5.1,0,0,1,.08,1.1V231h33.18a12.7,12.7,0,0,0,12.7-12.69V93.91C322.64,69.66,314.58,48.46,298.64,30.32Z"/><path class="cls-1" d="M881.57,13.26V231.05h-45.9V13.26A12.7,12.7,0,0,1,848.36.57h20.52A12.73,12.73,0,0,1,881.57,13.26Z"/><path class="cls-1" d="M1329.23,0V23.1q0,54.13-44.93,91.38c-.46.34-.93.68-1.39,1a144.69,144.69,0,0,1,16.58,14.73q29.76,34.06,29.74,78.18v22.12h-31.17a12.68,12.68,0,0,1-12.69-12.61c0-3.87,0-7.93,0-11.08q0-34.9-33.25-58.51-18.46-10-36.13-10h-31.74v92.22H1138.3V12.69A12.7,12.7,0,0,1,1151,0h20.52a12.73,12.73,0,0,1,12.69,12.69V92.23h32q37.26,0,60.5-35.84c5.75-11.17,8.63-22.38,8.63-33.71,0-1.19,0-5.24,0-9.55A12.69,12.69,0,0,1,1297.86.46Z"/><circle class="cls-1" cx="470.36" cy="160.77" r="27.88"/><path class="cls-1" d="M490.55,231.06H450.17V212.65a13.72,13.72,0,0,1,13.72-13.72h12.94a13.73,13.73,0,0,1,13.72,13.72Z"/><path class="cls-1" d="M587.74,231.06H564.6l-49.06-85L470.19,67.49l-41,71-53.42,92.54H353a13.56,13.56,0,0,1-11.74-20.33L458.61,7.36a13.55,13.55,0,0,1,23.48,0L599.48,210.73A13.56,13.56,0,0,1,587.74,231.06Z"/><path class="cls-1" d="M1118.53,180.37a115.17,115.17,0,0,1-208.46-45.5c-.14-.8-.27-1.61-.39-2.41s-.25-1.61-.34-2.43-.2-1.62-.29-2.44l-.18-1.81c0-.41-.08-.83-.1-1.24s-.06-.74-.08-1.12-.07-.84-.09-1.27q-.06-.9-.09-1.8,0-.34,0-.69c0-.61-.05-1.23-.06-1.85,0-.85,0-1.7,0-2.56v-.09c0-1,0-1.92,0-2.88s.06-1.92.11-2.88a1,1,0,0,1,0-.17c.09-1.93.24-3.85.43-5.75A115.22,115.22,0,0,1,1011.75.68h.08c1.91-.19,3.85-.34,5.79-.44,1,0,2-.09,3-.11s1.92,0,2.89,0h.14c.88,0,1.76,0,2.63,0s1.78,0,2.66.09c.4,0,.8,0,1.19.06.59,0,1.19.06,1.78.12.8,0,1.6.11,2.4.19.6.06,1.19.11,1.78.18s1.24.13,1.86.21l1.66.23c1.17.16,2.33.34,3.49.54l1.73.31a115.07,115.07,0,0,1,72.35,46.26c-5.34,4.41-15.46,12.74-23.26,19.07,0,0,0,0,0,0l-.28.23a13.14,13.14,0,0,1-18-1.39q-21.12-23-53.08-23-36.15,0-60.65,34.5Q951.46,97,951.48,115.36q0,38.6,37.16,62.71,17.37,9,34.94,9,30.78,0,52.82-23.54a13.12,13.12,0,0,1,17.4-1.54Z"/><path class="cls-1" d="M802.65,128.4V231h-45.9V115.71H790A12.69,12.69,0,0,1,802.65,128.4Z"/><path class="cls-1" d="M802.65,180.93a115.17,115.17,0,0,1-208.46-45.5c-.14-.8-.27-1.61-.39-2.41s-.25-1.61-.34-2.43-.2-1.62-.29-2.44l-.18-1.81c0-.41-.08-.83-.1-1.24s-.06-.74-.08-1.12-.07-.84-.09-1.27q-.06-.9-.09-1.8,0-.34,0-.69c0-.61-.05-1.23-.06-1.85,0-.85,0-1.7,0-2.56v-.09c0-1,0-1.92,0-2.88s.06-1.92.11-2.88a1,1,0,0,1,0-.17c.09-1.93.24-3.85.43-5.75A115.22,115.22,0,0,1,695.87,1.24H696c1.91-.19,3.85-.34,5.79-.44,1-.05,2-.09,3-.11s1.92,0,2.89,0h.14c.88,0,1.76,0,2.63,0s1.78,0,2.66.09c.4,0,.8,0,1.19.06.59,0,1.19.06,1.78.12.8,0,1.6.11,2.4.19.6.06,1.19.11,1.78.18s1.24.13,1.86.21l1.66.23c1.17.16,2.33.34,3.49.54l1.73.31a115.07,115.07,0,0,1,72.35,46.26C795.92,53.29,785.8,61.62,778,68c0,0,0,0,0,0l-.28.23a13.14,13.14,0,0,1-18-1.39q-21.12-23-53.08-23-36.15,0-60.65,34.5-10.44,19.23-10.42,37.6,0,38.6,37.16,62.71,17.37,9,34.94,9,30.78,0,52.82-23.54a13.12,13.12,0,0,1,17.4-1.54Z"/></g></g></svg>